<?xml version="1.0" encoding="utf-8"?>
<!-- Generator: Adobe Illustrator 16.0.0, SVG Export Plug-In . SVG Version: 6.00 Build 0)  -->
<!DOCTYPE svg PUBLIC "-//W3C//DTD SVG 1.1//EN" "http://www.w3.org/Graphics/SVG/1.1/DTD/svg11.dtd">
<svg version="1.1" id="Layer_1" xmlns="http://www.w3.org/2000/svg" xmlns:xlink="http://www.w3.org/1999/xlink" x="0px" y="0px"
	 width="205px" height="328.5px" viewBox="110 0 205 328.5" enable-background="new 110 0 205 328.5" xml:space="preserve">
<g>
	<g>
		<path fill="#505050" d="M191.329,233.954l1.458,75.362c0.115,5.004,3.28,9.021,8.784,9.021h22.372
			c5.504,0,8.669-4.019,8.777-9.021l1.46-75.362H191.329z"/>
		<path fill="#ECC81A" d="M237.25,148.117c21.896,0,26.378-42.202,27.21-63.536c0.203-5.187,0-9.135,0-10.955
			c0-9.277,0-62.042-33.147-62.042h-37.357c-33.155,0-32.864,52.764-32.864,62.042c0,2.049-0.291,4.787,0,10.955
			c1.024,21.862,5.69,63.536,26.92,63.536H237.25z"/>
		<path fill="#FED208" d="M305.838,237.971v-81.212c0-5.714-4.666-10.387-10.387-10.387H130.059
			c-5.715,0-10.387,4.673-10.387,10.387v81.212H305.838z"/>
		<g>
			<path fill="#010101" d="M161.952,222.756h-23.024V165.82h19.589c9.714,0,15.912,6.449,15.912,14.24
				c0,5.774-2.512,10.129-6.779,12.051c6.363,1.507,11.556,6.614,11.556,14.314C179.198,216.225,172.828,222.756,161.952,222.756z
				 M155.835,175.706h-4.354v13.228h4.354c3.608,0,6.621-3.018,6.621-6.613C162.456,178.635,159.443,175.706,155.835,175.706z
				 M159.443,199.225h-7.956v13.721h7.956c3.77,0,6.947-3.09,6.947-6.852C166.39,202.402,163.213,199.225,159.443,199.225z"/>
			<path fill="#010101" d="M219.541,222.756l-19.597-35.501v35.501h-12.553V165.82h12.553l19.597,35.501V165.82h12.544v56.936
				H219.541z"/>
			<path fill="#010101" d="M257.037,222.756h-12.565V165.82h9.461h3.096h8.798c9.209,0,17.405,7.451,17.405,18.257
				c0,9.637-5.775,15.991-12.97,17.744l16.323,20.929h-15.904l-13.572-20.348h-0.081v20.354H257.037z M257.037,175.706v16.831h6.694
				c3.685,0,7.532-3.023,7.532-8.46c0-5.193-3.847-8.371-7.532-8.371H257.037z"/>
		</g>
	</g>
</g>
</svg>
